<svg xmlns="http://www.w3.org/2000/svg" version="1.1" xmlns:xlink="http://www.w3.org/1999/xlink" xmlns:svgjs="http://svgjs.dev/svgjs" width="1440" height="560" preserveAspectRatio="none" viewBox="0 0 1440 560"><g mask="url(&quot;#SvgjsMask1308&quot;)" fill="none"><rect width="1440" height="560" x="0" y="0" fill="rgba(50, 50, 93, 1)"></rect><g transform="translate(0, 0)" stroke-linecap="round" stroke="url(&quot;#SvgjsLinearGradient1309&quot;)"><path d="M260 190.74 L260 369.26" stroke-width="15"></path><path d="M280 177.9 L280 382.1" stroke-width="15"></path><path d="M300 240.93 L300 319.07" stroke-width="15"></path><path d="M320 172.25 L320 387.75" stroke-width="15"></path><path d="M340 109.13 L340 450.88" stroke-width="15"></path><path d="M360 179.43 L360 380.57" stroke-width="15"></path><path d="M380 127.84 L380 432.15" stroke-width="15"></path><path d="M400 249.75 L400 310.25" stroke-width="15"></path><path d="M420 232.37 L420 327.63" stroke-width="15"></path><path d="M440 148.34 L440 411.66" stroke-width="15"></path><path d="M460 257.74 L460 302.26" stroke-width="15"></path><path d="M480 138.72 L480 421.28" stroke-width="15"></path><path d="M500 243.7 L500 316.3" stroke-width="15"></path><path d="M520 201.18 L520 358.82" stroke-width="15"></path><path d="M540 205.22 L540 354.78" stroke-width="15"></path><path d="M560 216.34 L560 343.65" stroke-width="15"></path><path d="M580 145.76 L580 414.24" stroke-width="15"></path><path d="M600 254.66 L600 305.35" stroke-width="15"></path><path d="M620 191.37 L620 368.63" stroke-width="15"></path><path d="M640 185.59 L640 374.41" stroke-width="15"></path><path d="M660 239.05 L660 320.95" stroke-width="15"></path><path d="M680 224.78 L680 335.22" stroke-width="15"></path><path d="M700 152.01 L700 407.99" stroke-width="15"></path><path d="M720 117.88 L720 442.12" stroke-width="15"></path><path d="M740 208.63 L740 351.38" stroke-width="15"></path><path d="M760 111.41 L760 448.59" stroke-width="15"></path><path d="M780 131.06 L780 428.94" stroke-width="15"></path><path d="M800 117.22 L800 442.77" stroke-width="15"></path><path d="M820 255.65 L820 304.35" stroke-width="15"></path><path d="M840 111.33 L840 448.67" stroke-width="15"></path><path d="M860 222.28 L860 337.72" stroke-width="15"></path><path d="M880 134.14 L880 425.86" stroke-width="15"></path><path d="M900 211.65 L900 348.35" stroke-width="15"></path><path d="M920 218.06 L920 341.94" stroke-width="15"></path><path d="M940 177.13 L940 382.87" stroke-width="15"></path><path d="M960 130.68 L960 429.32" stroke-width="15"></path><path d="M980 201.45 L980 358.55" stroke-width="15"></path><path d="M1000 176.67 L1000 383.33" stroke-width="15"></path><path d="M1020 216.66 L1020 343.35" stroke-width="15"></path><path d="M1040 190.68 L1040 369.32" stroke-width="15"></path><path d="M1060 257.46 L1060 302.54" stroke-width="15"></path><path d="M1080 191.26 L1080 368.74" stroke-width="15"></path><path d="M1100 243.12 L1100 316.88" stroke-width="15"></path><path d="M1120 173.69 L1120 386.31" stroke-width="15"></path><path d="M1140 172.64 L1140 387.36" stroke-width="15"></path><path d="M1160 194.91 L1160 365.1" stroke-width="15"></path><path d="M1180 163.31 L1180 396.69" stroke-width="15"></path></g></g><defs><mask id="SvgjsMask1308"><rect width="1440" height="560" fill="#ffffff"></rect></mask><linearGradient x1="244.8" y1="280" x2="1195.2" y2="280" gradientUnits="userSpaceOnUse" id="SvgjsLinearGradient1309"><stop stop-color="rgba(76, 58, 195, 1)" offset="0.28"></stop><stop stop-color="#dd1133" offset="1"></stop></linearGradient></defs></svg>