<svg xmlns="http://www.w3.org/2000/svg" version="1.1" xmlns:xlink="http://www.w3.org/1999/xlink" xmlns:svgjs="http://svgjs.dev/svgjs" width="1440" height="212" preserveAspectRatio="none" viewBox="0 0 1440 212"><g mask="url(&quot;#SvgjsMask1324&quot;)" fill="none"><rect width="1440" height="212" x="0" y="0" fill="rgba(50, 50, 93, 1)"></rect><g transform="translate(0, 0)" stroke-linecap="round" stroke="url(&quot;#SvgjsLinearGradient1325&quot;)"><path d="M260 49.03 L260 162.97" stroke-width="15"></path><path d="M280 66.97 L280 145.03" stroke-width="15"></path><path d="M300 65.19 L300 146.81" stroke-width="15"></path><path d="M320 49.48 L320 162.51" stroke-width="15"></path><path d="M340 60.7 L340 151.3" stroke-width="15"></path><path d="M360 70.66 L360 141.34" stroke-width="15"></path><path d="M380 96.69 L380 115.31" stroke-width="15"></path><path d="M400 51.4 L400 160.6" stroke-width="15"></path><path d="M420 81.38 L420 130.62" stroke-width="15"></path><path d="M440 46.2 L440 165.8" stroke-width="15"></path><path d="M460 89.84 L460 122.16" stroke-width="15"></path><path d="M480 92.84 L480 119.16" stroke-width="15"></path><path d="M500 93.59 L500 118.41" stroke-width="15"></path><path d="M520 97.41 L520 114.59" stroke-width="15"></path><path d="M540 55.15 L540 156.85" stroke-width="15"></path><path d="M560 92.13 L560 119.87" stroke-width="15"></path><path d="M580 76.25 L580 135.75" stroke-width="15"></path><path d="M600 55.67 L600 156.33" stroke-width="15"></path><path d="M620 87.01 L620 124.99" stroke-width="15"></path><path d="M640 89.84 L640 122.16" stroke-width="15"></path><path d="M660 54.16 L660 157.84" stroke-width="15"></path><path d="M680 83.61 L680 128.38" stroke-width="15"></path><path d="M700 79.15 L700 132.85" stroke-width="15"></path><path d="M720 82.3 L720 129.7" stroke-width="15"></path><path d="M740 79.31 L740 132.69" stroke-width="15"></path><path d="M760 52.77 L760 159.22" stroke-width="15"></path><path d="M780 77.96 L780 134.04" stroke-width="15"></path><path d="M800 48.91 L800 163.09" stroke-width="15"></path><path d="M820 87.88 L820 124.13" stroke-width="15"></path><path d="M840 87.67 L840 124.33" stroke-width="15"></path><path d="M860 69.3 L860 142.7" stroke-width="15"></path><path d="M880 54.4 L880 157.6" stroke-width="15"></path><path d="M900 83.36 L900 128.65" stroke-width="15"></path><path d="M920 86.66 L920 125.34" stroke-width="15"></path><path d="M940 80.34 L940 131.66" stroke-width="15"></path><path d="M960 76.47 L960 135.53" stroke-width="15"></path><path d="M980 53.14 L980 158.86" stroke-width="15"></path><path d="M1000 74.17 L1000 137.82" stroke-width="15"></path><path d="M1020 96.5 L1020 115.5" stroke-width="15"></path><path d="M1040 67.88 L1040 144.13" stroke-width="15"></path><path d="M1060 82.11 L1060 129.9" stroke-width="15"></path><path d="M1080 61.18 L1080 150.82" stroke-width="15"></path><path d="M1100 62.89 L1100 149.11" stroke-width="15"></path><path d="M1120 78.04 L1120 133.96" stroke-width="15"></path><path d="M1140 47.64 L1140 164.36" stroke-width="15"></path><path d="M1160 69.95 L1160 142.05" stroke-width="15"></path><path d="M1180 89.98 L1180 122.02" stroke-width="15"></path></g></g><defs><mask id="SvgjsMask1324"><rect width="1440" height="212" fill="#ffffff"></rect></mask><linearGradient x1="244.8" y1="106" x2="1195.2" y2="106" gradientUnits="userSpaceOnUse" id="SvgjsLinearGradient1325"><stop stop-color="rgba(76, 58, 195, 1)" offset="0.28"></stop><stop stop-color="#dd1133" offset="1"></stop></linearGradient></defs></svg>